<svg width="42" height="42" viewBox="0 0 42 42" fill="none" xmlns="http://www.w3.org/2000/svg">
<path d="M10.3574 37.9766C9.40801 37.9766 8.59526 37.6385 7.91917 36.9624C7.24307 36.2863 6.90503 35.4736 6.90503 34.5242V17.2623C6.90503 16.3129 7.24307 15.5001 7.91917 14.824C8.59526 14.1479 9.40801 13.8099 10.3574 13.8099H12.0836V10.3575C12.0836 7.96962 12.9251 5.93415 14.6082 4.25112C16.2912 2.56808 18.3267 1.72656 20.7146 1.72656C23.1024 1.72656 25.1379 2.56808 26.821 4.25112C28.504 5.93415 29.3455 7.96962 29.3455 10.3575V13.8099H31.0717C32.0211 13.8099 32.8338 14.1479 33.5099 14.824C34.186 15.5001 34.5241 16.3129 34.5241 17.2623V34.5242C34.5241 35.4736 34.186 36.2863 33.5099 36.9624C32.8338 37.6385 32.0211 37.9766 31.0717 37.9766H10.3574ZM20.7146 29.3456C21.664 29.3456 22.4767 29.0076 23.1528 28.3315C23.8289 27.6554 24.1669 26.8426 24.1669 25.8932C24.1669 24.9438 23.8289 24.1311 23.1528 23.455C22.4767 22.7789 21.664 22.4408 20.7146 22.4408C19.7651 22.4408 18.9524 22.7789 18.2763 23.455C17.6002 24.1311 17.2622 24.9438 17.2622 25.8932C17.2622 26.8426 17.6002 27.6554 18.2763 28.3315C18.9524 29.0076 19.7651 29.3456 20.7146 29.3456ZM15.536 13.8099H25.8931V10.3575C25.8931 8.91902 25.3897 7.6963 24.3827 6.68936C23.3758 5.68242 22.153 5.17894 20.7146 5.17894C19.2761 5.17894 18.0533 5.68242 17.0464 6.68936C16.0395 7.6963 15.536 8.91902 15.536 10.3575V13.8099Z" fill="#858585"/>
</svg>
