<svg width="146" height="60" viewBox="0 0 146 60" fill="none" xmlns="http://www.w3.org/2000/svg">
<path d="M98.4771 32.7719H104.817C104.573 33.3938 104.347 33.9583 104.121 34.5324C103.914 35.03 103.717 35.5275 103.491 36.0251C103.444 36.1303 103.293 36.2451 103.19 36.2451C99.9352 36.2451 96.6711 36.2451 93.4164 36.2451C93.407 36.2451 93.3882 36.2356 93.3317 36.2069C95.5141 30.9156 97.687 25.6148 99.9164 20.2183C97.9786 20.9455 96.1819 21.7588 94.4041 22.6869C94.4982 23.0314 94.6016 23.3567 94.6675 23.6916C94.9403 25.0694 94.5828 26.3611 94.1125 27.6337C93.4446 29.4325 92.4005 30.9922 91.0271 32.2935C89.0329 34.188 86.7189 35.4893 84.0192 35.9868C82.9374 36.1877 81.818 36.2069 80.7175 36.2547C79.6922 36.293 78.6574 36.2834 77.6321 36.2547C77.2935 36.2547 77.0677 36.36 76.8608 36.6087C75.224 38.6276 73.5308 40.6083 71.9505 42.6846C69.0156 46.5406 66.4194 50.6262 63.9831 54.8267C63.9549 54.8841 63.9079 54.932 63.8514 55.0181C63.6068 54.8745 63.3811 54.7406 63.1083 54.5779C63.4752 53.9464 63.8232 53.3341 64.1901 52.7313C66.2219 49.3824 68.3384 46.1005 70.6524 42.9429C72.5619 40.3404 74.5844 37.8335 76.7291 35.4318C77.0583 35.0587 77.2464 34.5324 77.4534 34.054C79.0807 30.1406 80.6892 26.208 82.2978 22.2851C82.3542 22.1415 82.4013 21.998 82.3918 21.7779C77.6415 24.6867 72.9006 27.605 68.1502 30.5138C68.1314 30.4946 68.122 30.4755 68.1032 30.4563C74.3774 25.6244 80.6516 20.7924 86.9258 15.9604C86.9258 15.9222 86.907 15.8839 86.8976 15.836C63.2682 15.7308 39.6294 15.6255 16 15.5203C16 15.4724 16 15.4342 16 15.3863C16.7807 15.3863 17.5615 15.3863 18.3422 15.3863C20.7409 15.3576 23.1396 15.3194 25.5383 15.2811C28.2098 15.2332 30.8813 15.1758 33.5527 15.128C36.3653 15.0706 39.1779 15.0132 41.9999 14.9558C44.5679 14.9079 47.1359 14.8601 49.7039 14.8122C52.4412 14.7644 55.1785 14.707 57.9159 14.6496C60.5779 14.6017 63.2306 14.5443 65.8927 14.4965C68.724 14.4391 71.546 14.3817 74.3774 14.3243C76.9736 14.2764 79.5605 14.2286 82.1567 14.1712C85.0351 14.1138 87.9135 14.0468 90.7919 14.0085C92.2123 13.9894 93.6233 14.0085 95.0437 14.0085C92.0242 15.8647 88.9671 17.7401 85.9099 19.6251C85.9099 19.6538 85.9287 19.6825 85.9381 19.7016C86.7283 19.7016 87.509 19.6825 88.2992 19.7016C89.9736 19.759 91.6103 19.9791 93.0213 21.022C93.2847 21.2134 93.5293 21.443 93.7362 21.6918C93.9055 21.8832 94.0278 21.864 94.2348 21.7684C96.1255 20.9264 97.9974 20.0365 99.9164 19.271C103.275 17.9411 106.746 17.0034 110.292 16.3336C112.286 15.9604 114.28 15.6351 116.293 15.3768C118.269 15.128 120.244 14.9845 122.229 14.8027C125.578 14.5061 128.945 14.4678 132.303 14.4582C134.335 14.4582 136.367 14.4582 138.399 14.4965C140.675 14.5443 142.952 14.6496 145.228 14.7261C145.482 14.7261 145.585 14.8409 145.557 15.0897C145.529 15.3385 145.585 15.6447 145.172 15.6255C144.043 15.5681 142.905 15.5107 141.776 15.482C140.431 15.4437 139.095 15.4055 137.75 15.3863C135.285 15.3576 132.821 15.3194 130.356 15.3289C128.663 15.3289 126.97 15.3959 125.277 15.4724C123.668 15.549 122.05 15.6447 120.451 15.7882C117.046 16.0848 113.659 16.525 110.311 17.2043C107.498 17.7688 104.714 18.4865 101.995 19.4337C101.882 19.472 101.779 19.5198 101.675 19.6155C104.488 19.7399 107.301 19.6921 110.151 19.6921C109.991 20.0844 109.822 20.4766 109.662 20.8689C109.408 21.4813 109.154 22.0841 108.918 22.6965C108.815 22.9548 108.674 23.0409 108.392 23.0409C106.595 23.0218 104.789 23.0409 102.992 23.0218C102.635 23.0218 102.447 23.1271 102.324 23.4715C102.033 24.237 101.713 24.9833 101.403 25.7392C101.365 25.8349 101.337 25.9306 101.29 26.0837H106.567C106.529 26.2463 106.51 26.3611 106.473 26.4568C106.106 27.3562 105.72 28.2556 105.363 29.1646C105.269 29.4038 105.146 29.4708 104.902 29.4708C103.35 29.4612 101.798 29.4708 100.246 29.4612C99.9728 29.4612 99.8223 29.5378 99.7188 29.8057C99.3426 30.7625 98.9381 31.7194 98.5148 32.7623L98.4771 32.7719ZM90.3404 25.0216C90.1993 25.0886 90.0865 25.146 89.983 25.2129C87.9323 26.5238 85.9852 27.9782 84.1039 29.5282C83.1726 30.2937 82.2507 31.0591 81.9403 32.3126C81.9403 32.3413 81.9121 32.3604 81.9027 32.3796C81.8745 32.4753 81.8557 32.5709 81.818 32.7719C82.6458 32.7049 83.4172 32.6953 84.1697 32.5709C87.2833 32.0447 89.3621 30.2554 90.3404 27.184C90.5568 26.4951 90.6414 25.7775 90.3404 25.0216ZM89.8325 24.1413C89.6067 23.9882 89.3904 23.816 89.1552 23.6916C88.1017 23.1558 86.9729 23.1653 85.8347 23.2036C85.75 23.2036 85.6371 23.3567 85.5901 23.4619C85.3549 23.9691 85.1198 24.4858 84.9034 25.012C84.4143 26.2176 83.9345 27.4232 83.4548 28.6288C83.4266 28.6958 83.4172 28.7723 83.3984 28.8297C85.5243 27.2797 87.6313 25.7392 89.8137 24.1413H89.8325Z" fill="white"/>
<path d="M142.431 18.7776C141.905 19.2273 141.387 19.6771 140.861 20.1268C140.023 20.8252 139.177 21.5237 138.34 22.2222C137.201 23.179 136.063 24.1359 134.925 25.1023C134.436 25.5137 133.947 25.9251 133.448 26.327C133.232 26.4992 133.251 26.6715 133.335 26.9107C134.304 29.628 135.254 32.3454 136.214 35.0724C136.223 35.1107 136.214 35.1489 136.232 35.2446H134.963C133.956 35.2446 132.959 35.2351 131.952 35.2446C131.68 35.2446 131.576 35.1489 131.492 34.9002C130.692 32.5751 129.883 30.2596 129.074 27.9345C129.046 27.8484 128.999 27.7622 128.933 27.5996C128.764 27.9919 128.613 28.3076 128.481 28.6425C127.625 30.7188 126.769 32.8047 125.932 34.881C125.829 35.1298 125.706 35.2542 125.415 35.2446C124.371 35.2255 123.327 35.2446 122.282 35.2446C122.198 35.2446 122.113 35.2351 121.981 35.2159C122.273 34.4983 122.536 33.7998 122.819 33.1109C124.089 30.0203 125.368 26.9394 126.647 23.8488C127.324 22.2126 128.002 20.5669 128.679 18.9307C128.717 18.8351 128.839 18.7202 128.933 18.7202C130.081 18.7011 131.228 18.7011 132.376 18.7011C132.413 18.7011 132.442 18.7298 132.545 18.7776C131.604 21.074 130.654 23.3704 129.714 25.6764C129.742 25.7051 129.77 25.7242 129.798 25.7529C130.081 25.5233 130.372 25.3032 130.645 25.064C131.586 24.2507 132.517 23.4278 133.458 22.6145C134.417 21.7821 135.386 20.9688 136.345 20.1363C136.778 19.7632 137.22 19.39 137.643 18.9977C137.879 18.7872 138.114 18.6628 138.443 18.6724C139.769 18.682 141.096 18.6724 142.422 18.6724C142.431 18.7107 142.441 18.7394 142.45 18.7776H142.431Z" fill="white"/>
<path d="M63.0207 25.8856C63.2841 25.6655 63.5569 25.455 63.8203 25.2254C64.7704 24.3834 65.711 23.5222 66.6517 22.6802C67.5735 21.8478 68.5048 21.0249 69.436 20.202C69.9064 19.781 70.3767 19.3696 70.8564 18.9582C70.9411 18.8912 71.0634 18.8242 71.1669 18.8242C72.5967 18.8242 74.0265 18.8242 75.5503 18.8242C72.4932 21.4746 69.4925 24.0676 66.4918 26.6702C67.6017 29.5502 68.7117 32.4207 69.8405 35.339C68.3166 35.339 66.8492 35.339 65.3912 35.3295C65.2783 35.3295 65.1278 35.1572 65.0714 35.0233C64.1589 32.6791 63.2653 30.3253 62.3623 27.981C62.3434 27.9236 62.3152 27.8662 62.2494 27.7131C62.0236 28.3064 61.8261 28.8135 61.6285 29.3206C60.9136 31.2247 60.1893 33.1288 59.4744 35.0424C59.3992 35.2338 59.3239 35.3582 59.0982 35.3582C57.9412 35.3486 56.7841 35.3582 55.5613 35.3582C55.8435 34.6118 56.1069 33.9038 56.3702 33.1957C57.7718 29.4737 59.164 25.7516 60.5656 22.0392C60.923 21.0823 61.2805 20.1159 61.6568 19.1687C61.7132 19.0347 61.8919 18.8625 62.0142 18.8529C63.1242 18.8338 64.2342 18.8434 65.3347 18.8434C65.4006 18.8434 65.457 18.8625 65.5605 18.8816C64.6857 21.2259 63.8109 23.5414 62.9361 25.8569C62.9643 25.876 62.9925 25.8952 63.0207 25.9143V25.8856Z" fill="white"/>
<path d="M40.8776 35.333C41.0939 34.7493 41.2915 34.2135 41.489 33.6777C42.6742 30.5297 43.8501 27.3722 45.0353 24.2242C45.6843 22.5019 46.3428 20.7892 46.9825 19.0669C47.0577 18.866 47.1518 18.8086 47.3493 18.8086C49.2024 18.8277 51.0555 18.8086 52.8992 18.866C53.9998 18.9043 55.0816 19.1435 55.8999 19.9759C56.6713 20.751 56.8594 21.7269 56.643 22.7603C56.1633 25.0567 54.7335 26.6067 52.7675 27.7071C52.5324 27.841 52.2972 28.0037 52.0338 28.0707C51.6858 28.1664 51.6575 28.3386 51.761 28.6448C52.2972 30.2809 52.824 31.9267 53.3507 33.5724C53.5389 34.1465 53.7176 34.7206 53.9151 35.333C52.7581 35.333 51.6387 35.333 50.5193 35.333C49.4658 35.333 49.494 35.333 49.2024 34.2996C48.7227 32.5869 48.2053 30.8933 47.7068 29.1902C47.6409 28.9701 47.5657 28.8648 47.3211 28.8553C47.0671 28.8457 46.9731 28.9701 46.9072 29.1615C46.4745 30.3192 46.0324 31.477 45.5997 32.6347C45.2893 33.4576 44.9883 34.29 44.6684 35.1129C44.6308 35.2086 44.4897 35.3138 44.405 35.3138C43.248 35.3234 42.091 35.3138 40.8682 35.3138L40.8776 35.333ZM47.9702 26.4345C48.7039 26.3867 49.3623 26.4058 49.9926 26.3005C51.5447 26.0422 52.6264 24.9323 52.918 23.3727C53.0309 22.7794 52.7581 22.1958 52.1843 22.0714C51.4694 21.9087 50.7263 21.8704 49.9926 21.7748C49.7574 21.7461 49.6539 21.8896 49.5787 22.0905C49.2777 22.9229 48.9578 23.7362 48.6474 24.5687C48.4311 25.1524 48.2147 25.7456 47.9702 26.4345Z" fill="white"/>
<path d="M121.539 29.9934C120.9 31.3712 120.251 32.7586 119.602 34.1364C119.545 34.2512 119.423 34.3661 119.31 34.4235C118.134 34.9784 116.921 35.4473 115.632 35.6291C114.531 35.7822 113.431 35.83 112.34 35.5621C110.374 35.0837 109.066 33.8589 108.615 31.8496C108.285 30.3857 108.539 28.9409 109.047 27.5343C109.866 25.2762 111.192 23.3626 112.932 21.7551C114.795 20.0424 116.949 18.8176 119.432 18.301C121.088 17.9565 122.743 17.9661 124.314 18.7124C124.738 18.9133 125.114 19.2195 125.49 19.5066C125.565 19.564 125.622 19.7745 125.575 19.8606C124.926 21.181 124.258 22.4919 123.628 23.7262C123.148 23.2477 122.715 22.6928 122.179 22.3005C121.21 21.602 120.081 21.5733 118.962 21.7934C117.438 22.09 116.149 22.8842 115.077 23.9941C113.779 25.3432 112.904 26.9411 112.688 28.8356C112.509 30.3761 113.318 31.7348 115.105 31.9549C116.836 32.1654 118.379 31.62 119.893 30.8832C120.458 30.6057 120.994 30.2804 121.549 29.9742L121.539 29.9934Z" fill="white"/>
<path d="M22.9769 35.3297C27.9154 29.6079 32.7974 23.9531 37.6889 18.3078C37.7265 18.2695 37.83 18.2791 37.9146 18.2695C38.0557 19.7335 38.1874 21.1783 38.3285 22.6231C38.4978 24.3262 38.6954 26.039 38.8647 27.7421C39.0058 29.1773 39.1187 30.603 39.2598 32.0383C39.3538 32.9855 39.4573 33.9232 39.5702 34.8705C39.6078 35.1958 39.542 35.3489 39.1657 35.3393C38.0934 35.3202 37.0304 35.3297 35.9581 35.3393C35.6947 35.3393 35.5536 35.2915 35.5442 34.9757C35.5442 34.4112 35.4877 33.8371 35.4595 33.2726C35.4501 33.0142 35.3654 32.909 35.0832 32.909C33.1267 32.909 31.1701 32.909 29.2135 32.8898C28.8655 32.8898 28.6491 33.0716 28.4516 33.3204C27.9436 33.9519 27.4357 34.5834 26.9183 35.2149C26.8619 35.2819 26.7396 35.3202 26.6455 35.3202C25.4509 35.3202 24.2562 35.3202 22.9675 35.3202L22.9769 35.3297ZM35.1585 25.0152C35.1585 25.0152 35.0926 24.9769 35.055 24.9577C33.7099 26.6513 32.3647 28.3449 30.9631 30.115C32.4118 30.115 33.7381 30.115 35.055 30.1055C35.1397 30.1055 35.2808 29.9141 35.2902 29.8089C35.309 29.5505 35.262 29.2826 35.262 29.0147C35.2243 27.6847 35.1867 26.3451 35.1491 25.0152H35.1585Z" fill="white"/>
<path d="M14.9156 19.0859C14.4358 20.3585 13.9561 21.6024 13.4763 22.8749C13.006 22.5688 12.5921 22.2626 12.1406 22.0138C11.0682 21.4206 9.93945 21.124 8.74481 21.6406C8.25567 21.8511 7.91703 22.2243 7.73831 22.7314C7.55017 23.2577 7.71009 23.8031 8.1616 24.1284C8.89532 24.6642 9.66666 25.1618 10.3722 25.7359C10.8707 26.1473 11.341 26.6161 11.7361 27.1328C12.4416 28.0514 12.3758 29.1039 12.0277 30.1468C11.6515 31.2759 11.0682 32.271 10.2687 33.1417C9.30921 34.1751 8.1616 34.9118 6.85409 35.3998C5.67826 35.8399 4.43659 35.993 3.21373 35.8495C2.20722 35.7347 1.21953 35.4094 0.222425 35.1797C-0.0315531 35.1223 -0.0315531 34.9979 0.0436998 34.7779C0.457591 33.4479 0.852668 32.1083 1.26656 30.7401C1.57698 30.9506 1.87799 31.1515 2.16959 31.3524C2.8845 31.8595 3.65584 32.2518 4.52125 32.338C5.70648 32.4528 6.86349 32.3571 7.7289 31.3429C8.3027 30.6635 8.31211 29.8789 7.66305 29.2665C7.07984 28.7212 6.42138 28.2714 5.82876 27.7452C5.28318 27.2668 4.69997 26.7979 4.28608 26.2143C3.56177 25.1809 3.65584 24.004 4.07914 22.8749C4.8787 20.7508 6.4496 19.4591 8.50965 18.6936C10.692 17.8803 12.7991 18.2343 14.9061 19.0763L14.9156 19.0859Z" fill="white"/>
<path d="M16.2701 35.331C17.9162 30.9583 19.5436 26.6334 21.1991 22.2416H16.0349C16.2325 21.7058 16.3924 21.2274 16.5711 20.7585C16.778 20.2036 16.9756 19.6486 17.2107 19.1032C17.2672 18.9788 17.4365 18.8353 17.5588 18.8353C22.1586 18.8257 26.7679 18.8257 31.3677 18.8353C31.3959 18.8353 31.4147 18.8544 31.49 18.8736C31.3018 19.3711 31.1137 19.8687 30.9256 20.3758C30.728 20.902 30.5211 21.4379 30.333 21.9737C30.2577 22.1842 30.1542 22.2512 29.9379 22.2512C28.5081 22.2416 27.0689 22.2512 25.6391 22.232C25.2252 22.232 25.0088 22.3564 24.8677 22.7583C23.9835 25.1599 23.0711 27.5616 22.1774 29.9536C21.5472 31.6472 20.9075 33.3312 20.2773 35.0248C20.1832 35.2736 20.0609 35.3693 19.7976 35.3597C18.6499 35.3406 17.5023 35.3597 16.2889 35.3597L16.2701 35.331Z" fill="white"/>
<path d="M66.4825 45.2338C66.0592 45.406 65.8805 45.1381 65.7017 44.8415C65.0056 43.7124 64.3002 42.5834 63.5947 41.4543C63.5853 41.4352 63.557 41.4161 63.4818 41.3491V45.2434C63.3125 45.2529 63.1902 45.2625 63.0491 45.2721V40.8228C63.4347 40.6984 63.6981 40.7846 63.9145 41.1577C64.5353 42.2198 65.1844 43.2532 65.824 44.2961C65.8899 44.4014 65.9651 44.5066 66.1062 44.5832C66.1062 44.4875 66.125 44.3918 66.125 44.2961C66.125 43.234 66.125 42.172 66.125 41.1099C66.125 40.9951 66.2379 40.8898 66.2944 40.7846C66.3602 40.8802 66.4919 40.9759 66.4919 41.0812C66.5107 42.392 66.5013 43.7029 66.5013 45.0233C66.5013 45.0998 66.4731 45.1764 66.4637 45.2338H66.4825Z" fill="white"/>
<path d="M55.6743 43.0328C55.599 41.7029 56.3704 40.8704 57.217 40.7365C58.8819 40.459 59.7567 41.4924 59.7285 43.0328C59.7191 43.7409 59.5498 44.4107 58.976 44.8795C58.3175 45.4153 57.5556 45.4728 56.8125 45.1474C56.0599 44.8221 55.7119 44.181 55.6743 43.3582C55.6743 43.2529 55.6743 43.1477 55.6743 43.0424V43.0328ZM59.277 43.0137C59.277 42.8798 59.277 42.7458 59.277 42.6118C59.2206 41.789 58.6844 41.1766 57.9131 41.0618C57.2076 40.9565 56.4927 41.3871 56.2575 42.1526C56.1352 42.5353 56.0882 42.9563 56.1164 43.3582C56.201 44.5638 57.311 45.2814 58.3458 44.8125C59.1077 44.4681 59.3052 43.7887 59.277 43.0041V43.0137Z" fill="white"/>
<path d="M11.4351 42.9863C11.4539 43.7996 11.2375 44.5268 10.5414 44.9861C9.59136 45.6176 7.83232 45.4645 7.43724 43.7613C7.2397 42.9193 7.32436 42.0965 7.86054 41.3884C8.3779 40.6995 9.21509 40.5368 10.1275 40.7856C10.8612 40.9865 11.3598 41.7137 11.4162 42.5462C11.4256 42.6897 11.4256 42.8332 11.4351 42.9863ZM7.81351 43.0054C7.81351 43.1203 7.81351 43.2447 7.81351 43.3595C7.86995 44.1345 8.42494 44.8138 9.09281 44.9191C9.82652 45.0435 10.532 44.7086 10.8048 44.0388C11.0964 43.3212 11.1058 42.594 10.7672 41.886C10.3063 40.9291 9.01755 40.7473 8.30265 41.5415C7.93579 41.9529 7.77588 42.4409 7.81351 42.9959V43.0054Z" fill="white"/>
<path d="M30.5868 42.9771C30.5868 43.8096 30.3893 44.575 29.6368 45.0247C28.508 45.6945 26.636 45.3501 26.5044 43.2546C26.4573 42.4796 26.6078 41.7333 27.2098 41.1879C27.8683 40.5946 28.6585 40.5468 29.4392 40.8721C30.22 41.1974 30.5304 41.8864 30.5868 42.7092C30.5868 42.8049 30.5868 42.891 30.5868 42.9867V42.9771ZM30.2011 43.0154C30.1447 42.7379 30.1071 42.4509 30.0318 42.1734C29.8343 41.5132 29.3451 41.1113 28.7055 41.0635C28.0564 41.0156 27.4732 41.3505 27.1722 41.9438C26.9088 42.4605 26.9088 43.0058 26.9935 43.5608C27.097 44.2689 27.7084 44.8812 28.3198 44.9291C29.204 44.996 29.7967 44.6133 30.0412 43.7904C30.1165 43.5417 30.1447 43.2738 30.1917 43.0058L30.2011 43.0154Z" fill="white"/>
<path d="M17.8316 45.2338C17.4741 45.3294 17.2766 45.2338 17.1355 44.9563C16.9568 44.5927 16.7404 44.2482 16.5241 43.8942C16.2889 43.521 15.9973 43.2531 15.5081 43.2818C15.2542 43.2914 15.1601 43.3775 15.1695 43.6359C15.1789 44.1621 15.1695 44.6884 15.1695 45.2433H14.7556C14.7556 43.8177 14.7556 42.4111 14.765 41.0142C14.765 40.9376 14.9061 40.7941 14.9908 40.7941C15.4611 40.775 15.9314 40.7654 16.3924 40.8037C16.8909 40.8419 17.2296 41.2151 17.333 41.7605C17.4177 42.2006 17.1731 42.7269 16.7969 42.9565C16.6746 43.0235 16.5429 43.0905 16.4582 43.1287C16.9191 43.8368 17.3612 44.5257 17.8222 45.2433L17.8316 45.2338ZM15.1695 42.0093C15.1695 42.0093 15.1413 42.0093 15.1225 42.0093C15.1695 42.2963 15.1507 42.7843 15.2918 42.8417C15.5834 42.9565 15.9691 42.8608 16.3171 42.8321C16.4018 42.8321 16.4864 42.7556 16.5523 42.7077C16.9662 42.4016 17.0038 41.6361 16.6181 41.349C16.223 41.0524 15.7433 41.0811 15.3106 41.196C15.2071 41.2247 15.2165 41.7031 15.1695 41.9806C15.1695 41.9901 15.1695 42.0093 15.1695 42.0188V42.0093Z" fill="white"/>
<path d="M35.6195 43.1199C36.0804 43.8375 36.5225 44.5168 36.974 45.2153C36.626 45.3397 36.4284 45.2536 36.2779 44.957C36.0804 44.5647 35.8546 44.2011 35.6289 43.8279C35.4125 43.4834 35.1209 43.2729 34.6976 43.2825C34.4342 43.2825 34.3308 43.3686 34.3402 43.6461C34.359 44.1628 34.3402 44.6795 34.3402 45.2344C34.2085 45.2536 34.0862 45.2631 33.9263 45.2823C33.9263 44.7943 33.9263 44.3446 33.9263 43.9045C33.9263 42.9763 33.9263 42.0482 33.9263 41.1201C33.9263 40.8617 34.0015 40.7565 34.2555 40.7756C34.6224 40.7948 34.9892 40.7756 35.3467 40.7948C35.9299 40.8139 36.3344 41.1105 36.4472 41.5698C36.5977 42.2109 36.3814 42.718 35.8452 43.0242C35.7606 43.072 35.6665 43.1199 35.6195 43.139V43.1199ZM34.3402 42.0099C34.3402 42.9763 34.4624 43.0912 35.2808 42.8902C35.817 42.7563 36.1086 42.3448 36.0428 41.8186C35.9769 41.3115 35.5066 41.0722 34.66 41.1392C34.0486 41.1871 34.4719 41.675 34.3496 41.9334C34.3402 41.9525 34.3496 41.9812 34.3496 42.0099H34.3402Z" fill="white"/>
<path d="M43.3517 45.2153C43.013 45.3588 42.8813 45.2344 42.7778 44.9378C42.4298 43.9331 42.4204 43.9331 41.3763 43.9427C40.2851 43.9427 40.5391 43.7992 40.1628 44.8517C40.0029 45.3014 40.0123 45.3014 39.5608 45.2248C40.0782 43.8183 40.5955 42.4118 41.1317 41.0052C41.1693 40.9 41.3386 40.7852 41.4327 40.7852C41.555 40.7852 41.7243 40.9 41.7713 41.0052C42.3075 42.3926 42.8249 43.78 43.3517 45.2057V45.2153ZM41.4421 41.2062C41.1599 42.029 40.8965 42.7658 40.6331 43.5504H42.2793C42.0065 42.7658 41.7431 42.029 41.4421 41.2062Z" fill="white"/>
<path d="M21.3494 45.252H20.9355C20.9355 45.0702 20.9355 44.9171 20.9355 44.764C20.9355 43.5584 20.9355 42.3528 20.9355 41.1472C20.9355 40.8697 21.0108 40.7645 21.293 40.774C21.6222 40.7932 21.9421 40.774 22.2713 40.7932C23.0332 40.8219 23.4471 41.2142 23.5506 41.9701C23.6352 42.592 23.1837 43.2809 22.5441 43.434C22.1772 43.5201 21.801 43.5297 21.3683 43.5775C21.3683 43.8359 21.3683 44.1229 21.3683 44.41C21.3683 44.697 21.3683 44.9649 21.3683 45.2615L21.3494 45.252ZM21.3494 43.0991C21.6504 43.0991 21.9044 43.0991 22.1584 43.0991C22.6381 43.08 23.005 42.7547 23.0614 42.3241C23.1367 41.6926 22.9203 41.3194 22.3654 41.1855C22.1396 41.1281 21.9044 41.1472 21.6693 41.1281C21.4435 41.1089 21.34 41.195 21.3494 41.4438C21.3588 41.9701 21.3494 42.4963 21.3494 43.0991Z" fill="white"/>
<path d="M4.25767 41.265C3.34523 40.9397 2.50804 40.9397 1.89661 41.7913C1.40747 42.4706 1.40747 43.6284 1.8778 44.2599C2.52686 45.1497 3.38286 45.0254 4.26708 44.7192C4.35174 44.9584 4.2953 45.1115 4.05073 45.1784C3.26998 45.3698 2.48923 45.4464 1.83077 44.8818C1.1629 44.3173 1.01239 43.5327 1.11586 42.6907C1.23815 41.7339 1.70848 41.0354 2.63974 40.7962C3.06303 40.6814 3.54277 40.7388 3.98488 40.7579C4.26708 40.7579 4.36115 40.9493 4.25767 41.265Z" fill="white"/>
<path d="M47.4905 45.2733C47.3306 45.2733 47.2177 45.2637 47.0672 45.2541V41.1589H45.8726C45.7691 40.8814 45.835 40.7762 46.0889 40.7858C46.8791 40.7858 47.6787 40.7858 48.4688 40.7858C48.5629 40.7858 48.6663 40.891 48.7604 40.958C48.6663 41.0154 48.5723 41.0824 48.4782 41.1398C48.4782 41.1398 48.45 41.1398 48.4406 41.1398C47.8072 41.1589 47.4905 41.5002 47.4905 42.1636C47.4905 43.1778 47.4905 44.2016 47.4905 45.2733Z" fill="white"/>
<path d="M52.3161 45.2631H51.9492V40.8234C52.0527 40.8234 52.175 40.8043 52.3161 40.7852V45.2631Z" fill="white"/>
</svg>
